<svg width="31" height="31" viewBox="0 0 31 31" fill="none" xmlns="http://www.w3.org/2000/svg">
<path d="M27.9014 0.755371H2.96813C2.30017 0.755371 1.65958 1.02071 1.18727 1.49303C0.714953 1.96534 0.449611 2.60593 0.449611 3.27389C0.449611 3.94184 0.714953 4.58243 1.18727 5.05474C1.65958 5.52706 2.30017 5.7924 2.96813 5.7924H21.8192L1.18879 26.4253C0.948251 26.6576 0.756385 26.9356 0.624392 27.2428C0.492399 27.5501 0.422923 27.8806 0.420017 28.215C0.417111 28.5494 0.480834 28.881 0.607467 29.1905C0.7341 29.5 0.921108 29.7812 1.15758 30.0177C1.39405 30.2542 1.67524 30.4412 1.98476 30.5678C2.29428 30.6945 2.62591 30.7582 2.96032 30.7553C3.29473 30.7524 3.62521 30.6829 3.93247 30.5509C4.23974 30.4189 4.51765 30.227 4.74997 29.9865L25.3829 9.35484V28.2072C25.3829 28.8751 25.6482 29.5157 26.1206 29.988C26.5929 30.4603 27.2335 30.7257 27.9014 30.7257C28.5694 30.7257 29.21 30.4603 29.6823 29.988C30.1546 29.5157 30.4199 28.8751 30.4199 28.2072V3.27389C30.4199 2.60593 30.1546 1.96534 29.6823 1.49303C29.21 1.02071 28.5694 0.755371 27.9014 0.755371Z" fill="black"/>
</svg>
