<svg width="178" height="178" viewBox="0 0 178 178" fill="none" xmlns="http://www.w3.org/2000/svg">
<path d="M150.053 94.066L130.397 74.4107M81.2598 143.204C81.2598 130.619 86.259 118.549 95.1581 109.65L147.273 57.5351C152.701 52.1074 161.501 52.1074 166.928 57.5351C172.356 62.9627 172.356 71.7628 166.928 77.19L114.813 129.305C110.407 133.712 105.176 137.207 99.4187 139.592C93.6616 141.976 87.4912 143.204 81.2598 143.204Z" stroke="#AEB1BA" stroke-width="14" stroke-miterlimit="10" stroke-linecap="round" stroke-linejoin="round"/>
<path d="M132.085 151.241V157.101C132.085 164.777 125.862 171 118.186 171H20.8983C13.2226 171 7 164.777 7 157.101V20.8983C7 13.2226 13.2226 7 20.8983 7H98.531C100.356 6.99995 102.163 7.35943 103.85 8.0579C105.536 8.75637 107.068 9.78016 108.358 11.0708L128.014 30.7258C129.692 32.404 130.913 34.4844 131.559 36.7684" stroke="#AEB1BA" stroke-width="14" stroke-miterlimit="10" stroke-linecap="round" stroke-linejoin="round"/>
<path d="M34.7949 143.204C34.7949 135.528 41.0175 129.305 48.6932 129.305C56.3689 129.305 62.5915 135.528 62.5915 143.204H81.259M34.7949 48.6953H76.4898M34.7949 76.4919H76.4898" stroke="#AEB1BA" stroke-width="14" stroke-miterlimit="10" stroke-linecap="round" stroke-linejoin="round"/>
</svg>
