<svg width="164" height="164" viewBox="0 0 164 164" fill="none" xmlns="http://www.w3.org/2000/svg">
<path d="M157.692 75.6797H113.538C99.6994 75.6797 88.3077 87.073 88.3077 100.914C88.3077 114.755 99.6994 126.148 113.538 126.148H138.769V145.074C138.769 148.538 135.924 151.383 132.462 151.383H31.5385C21.156 151.383 12.6154 142.841 12.6154 132.457V37.8281C12.6154 27.4442 21.156 18.9023 31.5385 18.9023H44.1538C47.6168 18.9023 50.4615 16.0572 50.4615 12.5938C50.4615 9.13033 47.6168 6.28516 44.1538 6.28516H31.5385C14.2365 6.28516 0 20.5237 0 37.8281V132.457C0 149.762 14.2365 164 31.5385 164H132.462C142.844 164 151.385 155.458 151.385 145.074V126.148H157.692C161.155 126.148 164 123.303 164 119.84V81.9883C164 78.5249 161.155 75.6797 157.692 75.6797ZM151.385 113.531H113.538C106.619 113.531 100.923 107.835 100.923 100.914C100.923 93.9936 106.619 88.2969 113.538 88.2969H151.385V113.531Z" fill="#AEB1BA"/>
<path d="M29.2676 31.9614C22.2282 35.0337 24.5558 44.137 31.5384 44.137H132.461C135.924 44.137 138.769 46.9822 138.769 50.4456V56.7542C138.769 60.2176 141.614 63.0628 145.077 63.0628C148.54 63.0628 151.385 60.2176 151.385 56.7542V50.4456C151.385 45.4262 149.391 40.6123 145.842 37.0631C142.293 33.5138 137.48 31.5198 132.461 31.5198H130.443L119.405 3.95128C118.78 2.41502 117.578 1.18478 116.057 0.524355C114.536 -0.136065 112.816 -0.174078 111.268 0.418468L29.2676 31.9614ZM116.818 31.5198H65.5368L110.006 14.4235L116.818 31.5198Z" fill="#AEB1BA"/>
</svg>
