<svg width="200" height="187" viewBox="0 0 200 187" fill="none" xmlns="http://www.w3.org/2000/svg">
<path d="M101.325 55.2877C98.8452 53.4374 95.836 52.438 92.7443 52.438C89.6526 52.438 86.6433 53.4374 84.1638 55.2877L62.7125 71.4002C60.9405 72.7387 59.5019 74.4702 58.5095 76.459C57.517 78.4477 56.9977 80.6397 56.9922 82.8632V122.267C56.9922 126.067 58.4989 129.712 61.1808 132.399C63.8627 135.086 67.5002 136.596 71.293 136.596H114.196C117.988 136.596 121.626 135.086 124.308 132.399C126.99 129.712 128.496 126.067 128.496 122.267V82.8632C128.492 80.6395 127.973 78.4471 126.981 76.4582C125.988 74.4693 124.549 72.738 122.776 71.4002L101.325 55.2877ZM99.8947 122.267V107.938C99.8947 106.038 99.1413 104.216 97.8004 102.872C96.4594 101.529 94.6407 100.774 92.7443 100.774C90.8479 100.774 89.0291 101.529 87.6882 102.872C86.3472 104.216 85.5938 106.038 85.5938 107.938V122.267H71.293V82.8632L92.7443 66.7434L114.196 82.8632V122.267H99.8947Z" fill="#AEB1BA"/>
<path d="M198.022 74.3297C197.373 73.6494 196.597 73.1038 195.737 72.7241C194.878 72.3444 193.953 72.138 193.014 72.1167C192.075 72.0954 191.141 72.2596 190.265 72.6C189.39 72.9404 188.59 73.4502 187.911 74.1004L184.236 77.6253C180.491 56.2968 169.435 36.9463 152.975 22.9114C136.515 8.87643 115.682 1.037 94.0701 0.745262C72.4582 0.453524 51.4222 7.72777 34.5905 21.3133C17.7588 34.8989 6.18661 53.9439 1.87005 75.1635C-2.44652 96.3831 0.763142 118.447 10.9454 137.549C21.1277 156.651 37.6442 171.594 57.646 179.801C77.6479 188.007 99.881 188.962 120.511 182.502C141.14 176.041 158.873 162.57 170.65 144.411C171.211 143.625 171.608 142.732 171.816 141.788C172.024 140.844 172.039 139.868 171.86 138.917C171.682 137.967 171.313 137.063 170.776 136.26C170.239 135.456 169.546 134.77 168.738 134.242C167.929 133.714 167.022 133.355 166.072 133.188C165.122 133.02 164.147 133.047 163.208 133.267C162.268 133.487 161.382 133.895 160.604 134.467C159.826 135.039 159.172 135.763 158.68 136.595C148.857 151.799 134.114 163.156 116.923 168.758C99.7331 174.361 81.1426 173.868 64.2721 167.363C47.4015 160.857 33.2777 148.736 24.2712 133.032C15.2647 117.328 11.9236 98.998 14.8088 81.1182C17.6939 63.2385 26.6297 46.8972 40.1163 34.8371C53.6029 22.7771 70.8194 15.7322 88.8764 14.8849C106.933 14.0376 124.732 19.4395 139.284 30.1839C153.837 40.9283 164.258 56.3613 168.798 73.8927C167.472 72.7457 165.769 72.1322 164.017 72.1705C162.266 72.2089 160.591 72.8965 159.316 74.1004C157.945 75.4111 157.15 77.2135 157.104 79.1116C157.059 81.0097 157.767 82.8484 159.073 84.2236L172.731 98.5522C173.379 99.2337 174.154 99.7806 175.013 100.162C175.872 100.543 176.797 100.751 177.736 100.773H177.893C179.736 100.775 181.509 100.064 182.841 98.7887L197.786 84.46C198.465 83.8104 199.01 83.0331 199.39 82.1724C199.769 81.3117 199.976 80.3845 199.998 79.4438C200.02 78.5031 199.857 77.5673 199.518 76.6898C199.178 75.8123 198.67 75.0103 198.022 74.3297Z" fill="#AEB1BA"/>
</svg>
