<svg width="100" height="100" viewBox="0 0 100 100" fill="none" xmlns="http://www.w3.org/2000/svg">
<path fill-rule="evenodd" clip-rule="evenodd" d="M37.5 50C37.5 46.6848 38.817 43.5054 41.1612 41.1612C43.5054 38.817 46.6848 37.5 50 37.5C53.3152 37.5 56.4946 38.817 58.8388 41.1612C61.183 43.5054 62.5 46.6848 62.5 50C62.5 53.3152 61.183 56.4946 58.8388 58.8388C56.4946 61.183 53.3152 62.5 50 62.5C46.6848 62.5 43.5054 61.183 41.1612 58.8388C38.817 56.4946 37.5 53.3152 37.5 50ZM50 43.75C48.3424 43.75 46.7527 44.4085 45.5806 45.5806C44.4085 46.7527 43.75 48.3424 43.75 50C43.75 51.6576 44.4085 53.2473 45.5806 54.4194C46.7527 55.5915 48.3424 56.25 50 56.25C51.6576 56.25 53.2473 55.5915 54.4194 54.4194C55.5915 53.2473 56.25 51.6576 56.25 50C56.25 48.3424 55.5915 46.7527 54.4194 45.5806C53.2473 44.4085 51.6576 43.75 50 43.75Z" fill="black"/>
<path fill-rule="evenodd" clip-rule="evenodd" d="M18.75 50C18.75 32.7406 32.7406 18.75 50 18.75C67.2594 18.75 81.25 32.7406 81.25 50C81.25 67.2594 67.2594 81.25 50 81.25C32.7406 81.25 18.75 67.2594 18.75 50ZM50 25C43.3696 25 37.0107 27.6339 32.3223 32.3223C27.6339 37.0107 25 43.3696 25 50C25 56.6304 27.6339 62.9893 32.3223 67.6777C37.0107 72.3661 43.3696 75 50 75C56.6304 75 62.9893 72.3661 67.6777 67.6777C72.3661 62.9893 75 56.6304 75 50C75 43.3696 72.3661 37.0107 67.6777 32.3223C62.9893 27.6339 56.6304 25 50 25Z" fill="black"/>
<path fill-rule="evenodd" clip-rule="evenodd" d="M50 0C22.3844 0 0 22.3844 0 50C0 77.6156 22.3844 100 50 100C77.6156 100 100 77.6156 100 50C100 22.3844 77.6156 0 50 0ZM6.25 50C6.25 25.8375 25.8375 6.25 50 6.25C74.1625 6.25 93.75 25.8375 93.75 50C93.75 74.1625 74.1625 93.75 50 93.75C25.8375 93.75 6.25 74.1625 6.25 50Z" fill="black"/>
</svg>
