<svg width="100" height="100" viewBox="0 0 100 100" fill="none" xmlns="http://www.w3.org/2000/svg">
<path d="M50 0C22.3627 0 0 22.3646 0 50C0 77.6373 22.3646 100 50 100C77.6373 100 100 77.6354 100 50C100 22.3627 77.6354 0 50 0ZM50 92.1875C26.6811 92.1875 7.8125 73.3174 7.8125 50C7.8125 26.6811 26.6826 7.8125 50 7.8125C73.3189 7.8125 92.1875 26.6826 92.1875 50C92.1875 73.3189 73.3174 92.1875 50 92.1875Z" fill="#8A8D94"/>
<path d="M50 25.1709C47.8426 25.1709 46.0938 26.9197 46.0938 29.0771V54.232C46.0938 56.3895 47.8426 58.1383 50 58.1383C52.1574 58.1383 53.9062 56.3895 53.9062 54.232V29.0771C53.9062 26.9197 52.1574 25.1709 50 25.1709Z" fill="#8A8D94"/>
<path d="M50 73.4683C52.9124 73.4683 55.2734 71.1073 55.2734 68.1948C55.2734 65.2824 52.9124 62.9214 50 62.9214C47.0876 62.9214 44.7266 65.2824 44.7266 68.1948C44.7266 71.1073 47.0876 73.4683 50 73.4683Z" fill="#8A8D94"/>
</svg>
